<svg width="1200" height="370" viewBox="0 0 1200 370" xmlns="http://www.w3.org/2000/svg">
  <rect width="1200" height="370" rx="12" fill="#F6F8FA"/>
  <rect x="1" y="1" width="1198" height="368" rx="11" fill="none" stroke="#D0D7DE"/>

  <g stroke="#D8DEE4" stroke-width="1">
    <path d="M44 84H1156"/>
    <path d="M44 322H1156"/>
  </g>

  <g font-family="-apple-system,BlinkMacSystemFont,'Segoe UI',Helvetica,Arial,sans-serif">
    <text x="48" y="48" fill="#57606A" font-size="13">github.com/Invens</text>

    <text x="48" y="142" fill="#24292F" font-size="54" font-weight="700">Abhishek Kumar</text>
    <text x="50" y="180" fill="#57606A" font-size="18">software engineer · India</text>

    <text x="50" y="235" fill="#24292F" font-size="21">I build products, backend systems, browsers, AI tools,</text>
    <text x="50" y="266" fill="#24292F" font-size="21">and the infrastructure needed to keep them running.</text>

    <text x="50" y="343" fill="#57606A" font-size="12">projects · experiments · client work · things I am still figuring out</text>

    <text x="796" y="118" fill="#57606A" font-size="12" font-weight="600">CURRENTLY</text>
    <text x="796" y="158" fill="#24292F" font-size="17">Zylo Browser</text>
    <text x="796" y="190" fill="#24292F" font-size="17">ExploreAI</text>
    <text x="796" y="222" fill="#24292F" font-size="17">SocialHub</text>
    <text x="796" y="254" fill="#24292F" font-size="17">INDRA</text>
    <text x="796" y="286" fill="#24292F" font-size="17">VectorSeed</text>

    <text x="1088" y="158" text-anchor="end" fill="#0969DA" font-size="13">building</text>
    <text x="1088" y="190" text-anchor="end" fill="#1A7F37" font-size="13">live</text>
    <text x="1088" y="222" text-anchor="end" fill="#0969DA" font-size="13">building</text>
    <text x="1088" y="254" text-anchor="end" fill="#6E7781" font-size="13">research</text>
    <text x="1088" y="286" text-anchor="end" fill="#6E7781" font-size="13">research</text>

    <path d="M774 105C760 112 755 122 752 134" fill="none" stroke="#0969DA" stroke-width="2" stroke-linecap="round"/>
    <path d="M749 130L752 136L758 132" fill="none" stroke="#0969DA" stroke-width="2" stroke-linecap="round" stroke-linejoin="round"/>
  </g>
</svg>